<svg version="1.1" xmlns="http://www.w3.org/2000/svg" width="150" height="150" viewBox="0 0 150 150">
<path d="M0 0 C5.70546133 0.97410315 7.88084547 3.85565601 11.16552734 8.24853516 C13 11 13 11 14.23535156 13.84130859 C16.01389326 17.64221388 17.68573382 21.11676936 21.81204224 22.69155884 C27.26217289 23.89362607 32.76035301 23.81383684 38.3125 23.6875 C39.15659424 23.68414642 40.00068848 23.68079285 40.87036133 23.67733765 C52.09714807 23.8316913 52.09714807 23.8316913 61.48046875 18.5703125 C63.78203315 15.25294986 65.08906748 11.75269457 66.2565918 7.90893555 C67.45019661 4.84397791 69.50280476 3.05281246 72 1 C74.6875 0.0625 74.6875 0.0625 77 0 C79.60793174 2.60793174 79.70837764 4.51225412 80.4375 8.1171875 C80.69273437 9.365 80.94796875 10.6128125 81.2109375 11.8984375 C81.34081055 12.55295898 81.47068359 13.20748047 81.60449219 13.88183594 C81.99189908 15.83417537 82.39036499 17.78430996 82.7890625 19.734375 C84.74964539 29.41846622 86.58928676 39.1154799 87.74462891 48.93212891 C88.04708454 51.38126771 88.40325549 53.82014285 88.76171875 56.26171875 C91.0821767 72.24638822 93.0683305 88.271848 94.94790649 104.31387329 C95.23217257 106.72569674 95.52103799 109.13698262 95.81454468 111.54769897 C96.2306213 114.97701896 96.62917509 118.4079561 97.0234375 121.83984375 C97.21675911 123.39448334 97.21675911 123.39448334 97.41398621 124.98052979 C97.99297739 130.19402683 98.2622265 134.09087479 96 139 C87.67141191 141.01498099 79.46203737 141.54541695 70.9375 141.88232422 C68.84088917 141.96631411 66.74455179 142.05724873 64.6484375 142.15283203 C46.16997265 142.98845375 27.91487066 142.97956342 9.43310547 142.15283203 C6.31120907 142.01385414 3.18925584 141.89244964 0.06640625 141.77734375 C-31.89491586 140.51663419 -31.89491586 140.51663419 -44 130 C-44.52851562 129.54625 -45.05703125 129.0925 -45.6015625 128.625 C-49.71740397 123.84234623 -49.42359944 118.22038869 -49.30859375 112.2265625 C-48.69885013 105.85126848 -46.24343268 101.88689722 -41.5625 97.625 C-37.34012193 94.3349517 -34.67557198 92.83518964 -29.1875 93.375 C-28.135625 93.58125 -27.08375 93.7875 -26 94 C-25 97 -25 97 -25.75 99 C-27.50001341 101.80002146 -29.02957895 103.55889952 -32.0625 104.9375 C-34.59802436 106.32794884 -35.10929749 107.25366725 -36 110 C-36.46213216 115.88549195 -36.46213216 115.88549195 -34 121 C-29.55058129 123.75440206 -25.04808246 124.86853324 -20 126 C-19.94521484 125.2889209 -19.89042969 124.5778418 -19.83398438 123.84521484 C-19.21440079 116.08404892 -18.39351009 108.35884454 -17.5 100.625 C-16.57124196 92.48246372 -15.6839337 84.3767353 -15.30859375 76.1875 C-14.95043639 72.48805183 -14.26835906 68.90297306 -13.58178711 65.25195312 C-12.92641094 61.58866713 -12.36106943 57.91533836 -11.81640625 54.234375 C-11.66316139 53.20298401 -11.66316139 53.20298401 -11.50682068 52.15075684 C-11.08587793 49.30974673 -10.66731198 46.46840392 -10.25268555 43.62646484 C-4.53468982 4.53468982 -4.53468982 4.53468982 0 0 Z " fill="#46477A" transform="translate(51,4)"/>
<path d="M0 0 C5.70546133 0.97410315 7.88084547 3.85565601 11.16552734 8.24853516 C13 11 13 11 14.23535156 13.84130859 C16.01389326 17.64221388 17.68573382 21.11676936 21.81204224 22.69155884 C27.26217289 23.89362607 32.76035301 23.81383684 38.3125 23.6875 C39.15659424 23.68414642 40.00068848 23.68079285 40.87036133 23.67733765 C52.09714807 23.8316913 52.09714807 23.8316913 61.48046875 18.5703125 C63.78203315 15.25294986 65.08906748 11.75269457 66.2565918 7.90893555 C67.45019661 4.84397791 69.50280476 3.05281246 72 1 C74.6875 0.0625 74.6875 0.0625 77 0 C79.60793174 2.60793174 79.70837764 4.51225412 80.4375 8.1171875 C80.69273437 9.365 80.94796875 10.6128125 81.2109375 11.8984375 C81.34081055 12.55295898 81.47068359 13.20748047 81.60449219 13.88183594 C81.99189908 15.83417537 82.39036499 17.78430996 82.7890625 19.734375 C88.25649549 46.74018038 88.25649549 46.74018038 88 57 C85.03 57 82.06 57 79 57 C78.95875 57.845625 78.9175 58.69125 78.875 59.5625 C77.70413688 64.16231939 75.51745111 66.86971564 72 70 C67.31476781 72.44446897 63.00586241 72.3788603 58 71 C53.65461358 68.70432416 50.99040723 66.53370536 49 62 C49 60.35 49 58.7 49 57 C42.73 57.33 36.46 57.66 30 58 C29.01 60.31 28.02 62.62 27 65 C21.84982456 70.77824561 21.84982456 70.77824561 17.42578125 71.30859375 C7.98485511 71.69949784 7.98485511 71.69949784 3.875 68.25 C1.64822476 66.05646021 0.16493521 63.90679071 -1 61 C-1 59.68 -1 58.36 -1 57 C-4.3 57 -7.6 57 -11 57 C-11.14478225 50.99498386 -10.62834734 45.36391587 -9.6875 39.4375 C-9.55214844 38.56416016 -9.41679688 37.69082031 -9.27734375 36.79101562 C-4.11404825 4.11404825 -4.11404825 4.11404825 0 0 Z " fill="#575896" transform="translate(51,4)"/>
<path d="M0 0 C1 3 1 3 0.25 5 C-1.50001341 7.80002146 -3.02957895 9.55889952 -6.0625 10.9375 C-8.59802436 12.32794884 -9.10929749 13.25366725 -10 16 C-10.46213216 21.88549195 -10.46213216 21.88549195 -8 27 C-3.0676455 30.20603043 2.2950076 31.04165147 8 32 C8.33 29.69 8.66 27.38 9 25 C10.32 25 11.64 25 13 25 C13.66 24.34 14.32 23.68 15 23 C16.32 23 17.64 23 19 23 C19.66 23.66 20.32 24.32 21 25 C28.14054403 29.63170424 32.63238821 30.32120186 41 29 C42.11375 28.7215625 42.11375 28.7215625 43.25 28.4375 C45 28 45 28 48 28 C49.1446875 28.8353125 49.1446875 28.8353125 50.3125 29.6875 C51.199375 30.120625 52.08625 30.55375 53 31 C56.08333333 29.66666667 56.08333333 29.66666667 59 28 C61.125 28.375 61.125 28.375 63 29 C65.05396726 28.59070014 65.05396726 28.59070014 67 28 C69.83967231 28 72.23735711 28.40267181 75 29 C75.4125 28.34 75.825 27.68 76.25 27 C77.11625 26.01 77.11625 26.01 78 25 C79.32 25 80.64 25 82 25 C82.99 26.485 82.99 26.485 84 28 C85.04220703 27.74669922 85.04220703 27.74669922 86.10546875 27.48828125 C89.27271564 26.95399534 92.10670748 27.04544692 95.3125 27.1875 C101.39438036 27.2635235 104.88260039 26.2109174 110 23 C110.99 23.66 111.98 24.32 113 25 C114.67422986 24.70700977 116.34178227 24.37309899 118 24 C118.99 24.33 119.98 24.66 121 25 C123.4820046 30.65345493 124.6646684 36.5185713 123.0625 42.5 C122.711875 43.325 122.36125 44.15 122 45 C113.67141191 47.01498099 105.46203737 47.54541695 96.9375 47.88232422 C94.84088917 47.96631411 92.74455179 48.05724873 90.6484375 48.15283203 C72.16997265 48.98845375 53.91487066 48.97956342 35.43310547 48.15283203 C32.31120907 48.01385414 29.18925584 47.89244964 26.06640625 47.77734375 C-5.89491586 46.51663419 -5.89491586 46.51663419 -18 36 C-18.52851563 35.54625 -19.05703125 35.0925 -19.6015625 34.625 C-23.71740397 29.84234623 -23.42359944 24.22038869 -23.30859375 18.2265625 C-22.69885013 11.85126848 -20.24343268 7.88689722 -15.5625 3.625 C-10.15754117 -0.5865072 -6.85010488 -1.34315782 0 0 Z " fill="#414270" transform="translate(25,98)"/>
<path d="M0 0 C0.33 0.66 0.66 1.32 1 2 C4.3 2 7.6 2 11 2 C11.37125 3.216875 11.7425 4.43375 12.125 5.6875 C13.4713675 9.1487096 14.92461215 11.87483718 17.9921875 14.15625 C22.39694495 16.00727648 27.35638205 15.74997867 32 15 C38.06886456 11.96556772 39.52024216 8.1993946 42 2 C48.27 2 54.54 2 61 2 C61.99 5.465 61.99 5.465 63 9 C66.20667896 13.0083487 68.94766199 15.00934549 74 16 C78.56234487 16.15543059 81.407083 15.36917474 85.3125 12.9375 C88.58438242 9.36125643 89.5962423 6.6012058 91 2 C93.97 2 96.94 2 100 2 C101.52986762 6.19194775 102.38704445 10.05815159 102.8515625 14.4921875 C102.98046875 15.69101563 103.109375 16.88984375 103.2421875 18.125 C103.36851562 19.3625 103.49484375 20.6 103.625 21.875 C103.82609375 23.76605469 103.82609375 23.76605469 104.03125 25.6953125 C104.3601423 28.79629701 104.68285192 31.89779608 105 35 C99.25 34.125 99.25 34.125 97 33 C96.01 33.99 96.01 33.99 95 35 C94.05125 34.505 93.1025 34.01 92.125 33.5 C89.27721834 31.85575631 89.27721834 31.85575631 87 32 C86.34 33.32 85.68 34.64 85 36 C84.2575 35.54625 83.515 35.0925 82.75 34.625 C80.53069422 33.31359204 78.32032178 32.11719197 76 31 C75.67 32.65 75.34 34.3 75 36 C74.505 34.02 74.505 34.02 74 32 C71.46653542 31.92962598 69.2762137 31.92897362 66.8125 32.5625 C65 33 65 33 63 32 C62.505 32.99 62.505 32.99 62 34 C61.67 33.34 61.34 32.68 61 32 C59.6078125 32.495 59.6078125 32.495 58.1875 33 C55 34 55 34 52 34 C52 33.34 52 32.68 52 32 C51.2575 32.185625 50.515 32.37125 49.75 32.5625 C47.00993984 32.99841866 45.60979891 32.71994453 43 32 C42.01 32.495 42.01 32.495 41 33 C38.66666667 33 36.33333333 33 34 33 C33.01 33.495 33.01 33.495 32 34 C31.34 33.34 30.68 32.68 30 32 C28.68 32.99 27.36 33.98 26 35 C26 34.01 26 33.02 26 32 C24.3603125 32.2475 24.3603125 32.2475 22.6875 32.5 C16.86746988 33.28915663 16.86746988 33.28915663 14.125 32.375 C11.21709654 31.86184057 9.60473797 32.69763102 7 34 C6.34 34.66 5.68 35.32 5 36 C4.34 35.34 3.68 34.68 3 34 C0.41645782 33.83312552 0.41645782 33.83312552 -2 34 C-2.89371715 27.41399207 -2.96727621 21.55813271 -2 15 C-1.73655113 13.00816689 -1.47320492 11.01631927 -1.2121582 9.02416992 C-0.81607847 6.01502015 -0.40813731 3.0075361 0 0 Z " fill="#4E4F87" transform="translate(39,59)"/>
<path d="M0 0 C4.41070939 2.20535469 7.24755746 4.92230735 10 9 C10.495 10.98 10.495 10.98 11 13 C17.27 13.33 23.54 13.66 30 14 C30.33 11.69 30.66 9.38 31 7 C32.3046875 5.0390625 32.3046875 5.0390625 33.875 3.625 C34.38804688 3.14289062 34.90109375 2.66078125 35.4296875 2.1640625 C39.6098362 -0.9346547 45.05464729 -0.56232204 50 0 C53.91656471 1.99388749 56.84099087 4.13650997 59 8 C59.6875 11.25 59.6875 11.25 60 14 C62.64 14 65.28 14 68 14 C68.495 14.99 68.495 14.99 69 16 C66.03 16 63.06 16 60 16 C59.95875 16.845625 59.9175 17.69125 59.875 18.5625 C58.70413688 23.16231939 56.51745111 25.86971564 53 29 C48.31476781 31.44446897 44.00586241 31.3788603 39 30 C34.65461358 27.70432416 31.99040723 25.53370536 30 21 C30 19.35 30 17.7 30 16 C23.73 16.33 17.46 16.66 11 17 C10.01 19.31 9.02 21.62 8 24 C2.84982456 29.77824561 2.84982456 29.77824561 -1.57421875 30.30859375 C-11.01514489 30.69949784 -11.01514489 30.69949784 -15.125 27.25 C-17.35177524 25.05646021 -18.83506479 22.90679071 -20 20 C-20 18.68 -20 17.36 -20 16 C-23.3 16 -26.6 16 -30 16 C-30 15.34 -30 14.68 -30 14 C-26.7 14 -23.4 14 -20 14 C-19.938125 13.13375 -19.87625 12.2675 -19.8125 11.375 C-18.68826377 6.70509564 -16.26697569 3.39725546 -12.13671875 0.8515625 C-8.18159916 -0.72470088 -4.176187 -0.53523916 0 0 Z " fill="#585993" transform="translate(70,45)"/>
<path d="M0 0 C5.33739473 1.98844117 8.45333824 4.90667648 11 10 C11.40331428 15.24308569 10.86051133 18.56127553 8 23 C4.43902633 26.87517723 1.21763475 27.69502419 -3.859375 28.03125 C-8.33462745 27.96591785 -10.44947617 26.48796431 -13.75 23.5625 C-16.95964712 19.90706855 -17.35691293 16.87694957 -17.27734375 12.05859375 C-16.63697206 7.30541233 -13.70159025 4.59245399 -10.1875 1.625 C-6.37985365 -0.31615304 -4.22575274 -0.52821909 0 0 Z " fill="#585993" transform="translate(118,46)"/>
<path d="M0 0 C1 3 1 3 0.25 5 C-1.50001341 7.80002146 -3.02957895 9.55889952 -6.0625 10.9375 C-8.59802436 12.32794884 -9.10929749 13.25366725 -10 16 C-10.28554945 19.85491761 -10.14362027 22.58509699 -8.875 26.25 C-8.58625 27.1575 -8.2975 28.065 -8 29 C-8.66 29.99 -9.32 30.98 -10 32 C-10.53625 31.34 -11.0725 30.68 -11.625 30 C-14.63868923 27.46215644 -16.15726569 27.67295878 -20 28 C-20.99 28 -21.98 28 -23 28 C-23.81337131 13.17856726 -23.81337131 13.17856726 -19 7 C-13.1596337 0.81364043 -8.59943616 -1.68616395 0 0 Z " fill="#464779" transform="translate(25,98)"/>
<path d="M0 0 C4.41070939 2.20535469 7.24755746 4.92230735 10 9 C10.495 10.98 10.495 10.98 11 13 C17.27 13.33 23.54 13.66 30 14 C30.33 11.69 30.66 9.38 31 7 C32.3046875 5.0390625 32.3046875 5.0390625 33.875 3.625 C34.38804688 3.14289062 34.90109375 2.66078125 35.4296875 2.1640625 C39.6098362 -0.9346547 45.05464729 -0.56232204 50 0 C53.91656471 1.99388749 56.84099087 4.13650997 59 8 C59.6875 11.25 59.6875 11.25 60 14 C62.64 14 65.28 14 68 14 C68.495 14.99 68.495 14.99 69 16 C66.03 16 63.06 16 60 16 C59.95875 16.845625 59.9175 17.69125 59.875 18.5625 C58.70413688 23.16231939 56.51745111 25.86971564 53 29 C48.31476781 31.44446897 44.00586241 31.3788603 39 30 C34.65461358 27.70432416 31.99040723 25.53370536 30 21 C30 19.35 30 17.7 30 16 C23.73 16.33 17.46 16.66 11 17 C10.01 19.31 9.02 21.62 8 24 C2.84982456 29.77824561 2.84982456 29.77824561 -1.57421875 30.30859375 C-11.01514489 30.69949784 -11.01514489 30.69949784 -15.125 27.25 C-17.35177524 25.05646021 -18.83506479 22.90679071 -20 20 C-20 18.68 -20 17.36 -20 16 C-23.3 16 -26.6 16 -30 16 C-30 15.34 -30 14.68 -30 14 C-26.7 14 -23.4 14 -20 14 C-19.938125 13.13375 -19.87625 12.2675 -19.8125 11.375 C-18.68826377 6.70509564 -16.26697569 3.39725546 -12.13671875 0.8515625 C-8.18159916 -0.72470088 -4.176187 -0.53523916 0 0 Z M-16.3125 6.125 C-18.60935017 10.03815214 -19.19954025 13.48240876 -19 18 C-17.17525555 23.37285867 -14.05197929 26.47401035 -9 29 C-4.35695813 29.56645111 -0.87486883 29.42123314 3.375 27.375 C7.36967893 23.76076668 9.1206612 20.35559774 9.4375 15 C9.23268474 9.89912472 6.70800014 6.83451867 3.3125 3.1875 C-3.95706138 -0.54551801 -10.37491363 0.66883955 -16.3125 6.125 Z M32.625 7.75 C30.48112116 12.03775768 30.47062858 14.23565719 31 19 C32.13749195 21.78508316 32.13749195 21.78508316 34 24 C34.515625 24.7425 35.03125 25.485 35.5625 26.25 C39.39668429 29.0027477 43.35616232 29.18369611 48 29 C52.76149212 27.41283596 55.20991508 25.13345914 58 21 C59.20643566 17.38069302 59.32268559 14.80768995 59 11 C56.26114877 5.91356199 53.4898792 2.82995973 48 1 C40.82891469 0.32348252 37.2690705 2.37265521 32.625 7.75 Z " fill="#C9C9DC" transform="translate(70,45)"/>
<path d="M0 0 C3.42201828 -0.37331109 5.90185629 -0.63763183 8.9375 1.125 C10.50422245 3.88980433 10.38976435 5.88188517 10 9 C8.9375 10.875 8.9375 10.875 7 12 C3.4375 12.375 3.4375 12.375 0 12 C-2.31332486 8.53001271 -2.33957563 7.07490752 -2 3 C-1.34 2.01 -0.68 1.02 0 0 Z " fill="#F7F7FA" transform="translate(111,54)"/>
<path d="M0 0 C0.99 0.66 1.98 1.32 3 2 C3.39507893 6.34586828 3.45331002 8.32003497 1 12 C-2.42201828 12.37331109 -4.90185629 12.63763183 -7.9375 10.875 C-9.50422245 8.11019567 -9.38976435 6.11811483 -9 3 C-6.78229215 -0.69617975 -4.0271794 -0.41949785 0 0 Z " fill="#F8F8FB" transform="translate(68,54)"/>
<path d="M0 0 C1.60520004 0.06023265 3.20934327 0.14908599 4.8125 0.25 C6.15248047 0.31960937 6.15248047 0.31960937 7.51953125 0.390625 C10 1 10 1 11.82421875 3.046875 C12.40623047 4.01367188 12.40623047 4.01367188 13 5 C12.071875 4.95875 11.14375 4.9175 10.1875 4.875 C6.84190281 4.72863661 6.84190281 4.72863661 4 7 C3.34 6.01 2.68 5.02 2 4 C1.01 4.66 0.02 5.32 -1 6 C-1.33 5.01 -1.66 4.02 -2 3 C-1.34 2.01 -0.68 1.02 0 0 Z " fill="#494B81" transform="translate(82,90)"/>
<path d="M0 0 C0.7425 0.185625 1.485 0.37125 2.25 0.5625 C2.8275 0.706875 3.405 0.85125 4 1 C4 1.66 4 2.32 4 3 C-5.5 3 -5.5 3 -10 2 C-10 1.67 -10 1.34 -10 1 C-3.8028169 -1.3943662 -3.8028169 -1.3943662 0 0 Z " fill="#D8D9E6" transform="translate(92,74)"/>
</svg>
